<?xml version="1.0" encoding="UTF-8" standalone="no"?>
<svg
   xmlns:dc="http://purl.org/dc/elements/1.1/"
   xmlns:cc="http://creativecommons.org/ns#"
   xmlns:rdf="http://www.w3.org/1999/02/22-rdf-syntax-ns#"
   xmlns:svg="http://www.w3.org/2000/svg"
   xmlns="http://www.w3.org/2000/svg"
   xmlns:sodipodi="http://sodipodi.sourceforge.net/DTD/sodipodi-0.dtd"
   xmlns:inkscape="http://www.inkscape.org/namespaces/inkscape"
   width="1024"
   height="1024"
   viewBox="0 0 1024 1024"
   fill="none"
   version="1.1"
   id="svg32"
   sodipodi:docname="splash-icon (cópia 1).svg"
   inkscape:version="1.0 (6e3e5246a0, 2020-05-07)"
   inkscape:export-filename="/home/solucaocriativa/Development/MEU-COMPROMISSO/mobile/src/assets/icon.png"
   inkscape:export-xdpi="96"
   inkscape:export-ydpi="96">
  <metadata
     id="metadata38">
    <rdf:RDF>
      <cc:Work
         rdf:about="">
        <dc:format>image/svg+xml</dc:format>
        <dc:type
           rdf:resource="http://purl.org/dc/dcmitype/StillImage" />
        <dc:title></dc:title>
      </cc:Work>
    </rdf:RDF>
  </metadata>
  <defs
     id="defs36" />
  <sodipodi:namedview
     inkscape:document-rotation="0"
     pagecolor="#353535"
     bordercolor="#666666"
     borderopacity="1"
     objecttolerance="10"
     gridtolerance="10"
     guidetolerance="10"
     inkscape:pageopacity="0"
     inkscape:pageshadow="2"
     inkscape:window-width="1366"
     inkscape:window-height="689"
     id="namedview34"
     showgrid="false"
     inkscape:snap-global="true"
     inkscape:zoom="0.3025266"
     inkscape:cx="190.5361"
     inkscape:cy="610.67078"
     inkscape:window-x="0"
     inkscape:window-y="25"
     inkscape:window-maximized="1"
     inkscape:current-layer="svg32"
     fit-margin-top="0"
     fit-margin-left="0"
     fit-margin-right="0"
     fit-margin-bottom="0" />
  <rect
     y="0"
     x="0"
     height="1024"
     width="1024"
     id="rect70"
     style="fill:#1f8163;stroke-width:90.6669;stroke-linecap:round;fill-opacity:1" />
  <path
     d="m 507.20634,107.33574 c -8.69046,0.11671 -15.63816,7.25844 -15.51619,15.94831 l 0.69967,51.38443 c 0.12254,8.68987 7.25902,15.63407 15.94889,15.51619 8.68987,-0.11671 15.63407,-7.25844 15.51561,-15.94422 l -0.69967,-51.3888 c -0.11963,-8.68579 -7.26281,-15.63378 -15.94831,-15.51591 z m -167.29093,47.17327 c -2.53259,0.0992 -5.08064,0.81813 -7.41249,2.2096 -7.46676,4.44311 -9.91299,14.1008 -5.45732,21.56756 l 26.30187,44.14962 c 2.98425,5.00537 8.30823,7.75795 13.7425,7.68326 2.66973,-0.0496 5.36746,-0.75511 7.82419,-2.21777 7.46763,-4.4472 9.91357,-14.10401 5.45819,-21.57106 L 354.07457,162.1803 c -3.05895,-5.13141 -8.57959,-7.89158 -14.15916,-7.67129 z m 335.80468,-4.58871 c -5.57958,-0.0671 -11.02172,2.84303 -13.93537,8.05701 L 636.6975,202.8269 c -4.24238,7.58493 -1.53327,17.17084 6.05166,21.40971 2.4967,1.39993 5.21019,2.04066 7.88021,2.00536 5.43777,-0.0729 10.68735,-2.96879 13.53038,-8.05673 l 25.08606,-44.84958 c 4.24354,-7.58464 1.53385,-17.16763 -6.0505,-21.4103 -2.37153,-1.32494 -4.93534,-1.97355 -7.47522,-2.00506 z m -200.537,74.00966 c -17.1793,0.22466 -34.78721,9.04379 -43.49692,29.16446 -3.45226,7.97415 0.23633,17.23444 8.19094,20.69049 7.97415,3.45255 17.23444,-0.21591 20.6867,-8.19065 5.19006,-11.98516 16.98264,-11.04915 22.49161,-8.87077 4.94642,1.94641 12.52785,7.21175 7.76174,20.56882 l -42.69484,119.75208 c -17.9026,3.46013 -32.83292,18.07971 -37.73266,38.45187 -7.01772,29.15279 -13.33723,57.22397 -19.44404,84.37082 -3.09046,13.74309 -6.18121,27.48151 -9.37029,41.40929 -1.93825,8.46958 3.35452,16.90415 11.8276,18.84619 8.47046,1.94671 16.90853,-3.35422 18.85087,-11.8238 3.19666,-13.9628 6.29558,-27.74848 9.39392,-41.52658 6.08317,-27.03714 12.3703,-54.99074 19.33375,-83.91127 1.95896,-8.12763 7.80901,-15.90513 16.49567,-15.08321 0.15464,0.0496 0.30403,0.0496 0.4683,0.0525 8.00566,1.01829 13.75855,8.30065 12.86543,16.34979 -0.89632,8.13142 -2.40245,23.98169 -3.85694,39.3167 -1.4434,15.20574 -2.93349,30.93814 -3.80676,38.82155 -4.79675,43.27285 -3.12577,48.44014 11.37564,75.8347 2.75288,5.20611 5.87485,11.10809 9.66177,18.71665 16.79766,33.167 14.67443,78.97623 -6.68102,144.16676 -22.78221,69.53504 -141.4416,113.15742 -242.04374,124.25413 -8.6391,0.95527 -14.86758,8.72868 -13.91581,17.36399 0.89632,8.12734 7.82505,14.12006 15.8348,14.00977 0.50331,0 1.018,-0.0496 1.53327,-0.0905 113.99539,-12.57862 241.2294,-62.52023 268.49121,-145.73503 3.23984,-9.88527 6.05895,-19.40086 8.48504,-28.57479 2.67381,9.10682 5.7491,18.53605 9.26029,28.33086 6.57861,18.35894 18.39862,35.71126 35.13355,51.57758 3.10213,2.94078 7.08162,4.36434 11.03719,4.31328 4.09707,-0.0525 8.16672,-1.70279 11.20612,-4.90733 5.98076,-6.30696 5.71379,-16.26692 -0.59347,-22.24389 -13.12511,-12.44091 -22.26315,-25.68011 -27.15881,-39.352 -23.13234,-64.58102 -26.50669,-110.31526 -10.57355,-144.02933 3.53074,-7.60827 6.49194,-13.59312 9.10273,-18.86983 13.74717,-27.78408 15.27198,-32.99398 9.29559,-76.12123 -1.0886,-7.86824 -3.01606,-23.57671 -4.87582,-38.77079 -1.86763,-15.2603 -3.8018,-31.03559 -4.9225,-39.12821 -0.54299,-3.89254 0.48697,-7.78537 2.89789,-10.96278 2.3549,-3.11438 5.72867,-5.14308 9.52318,-5.73305 0.15464,0 0.29936,-0.0496 0.45896,-0.0642 8.66215,-1.06905 14.7214,6.5471 16.90007,14.62366 7.74569,28.68449 14.78443,56.42597 21.59499,83.25449 3.48406,13.72296 6.96754,27.44562 10.55751,41.35385 2.17079,8.41444 10.75008,13.46678 19.16481,11.30066 8.41503,-2.1705 13.47174,-10.75037 11.30095,-19.16481 -3.57392,-13.86914 -7.0504,-27.54862 -10.52191,-41.23627 -6.83858,-26.93852 -13.90823,-54.79379 -21.70937,-83.70207 -5.4614,-20.23883 -20.78123,-34.44554 -38.7702,-37.40996 L 528.23762,276.78521 c -5.12761,-13.22344 2.30822,-18.69681 7.20008,-20.78094 5.44565,-2.32368 17.20673,-3.5821 22.72357,8.26126 l 96.60369,208.00404 c 45.07746,103.81544 45.93848,105.80096 50.04752,260.00558 0.18381,7.1604 5.19443,13.28646 12.17393,14.90697 l 76.31409,17.70974 c 8.47396,1.95459 16.91962,-3.30666 18.88558,-11.77275 1.96655,-8.4655 -3.30258,-16.91524 -11.76837,-18.88179 L 735.94319,719.27608 C 731.87704,570.85119 728.97536,564.16638 683.63034,459.74172 L 586.6847,250.97906 c -12.87798,-27.65044 -42.37214,-32.95867 -63.58607,-23.92305 -5.09611,2.17459 -9.93633,5.30064 -14.12444,9.24425 -4.29723,-3.82952 -9.22002,-6.82195 -14.37536,-8.85094 -6.03591,-2.37882 -12.68891,-3.60543 -19.41282,-3.51498 z M 219.83684,278.7786 c -5.57928,-0.0729 -11.02172,2.83895 -13.93945,8.05323 -4.24209,7.58493 -1.53298,17.16733 6.05195,21.41 l 44.84959,25.08664 c 2.49641,1.39613 5.2099,2.04095 7.87991,2.00185 5.43777,-0.0729 10.68706,-2.96908 13.53447,-8.05293 4.24209,-7.58551 1.52918,-17.17142 -6.05633,-21.41438 l -44.849,-25.08284 c -2.36715,-1.32524 -4.93096,-1.96976 -7.47114,-2.00157 z m 579.31983,-7.9155 c -2.53638,0.0992 -5.08473,0.81433 -7.41628,2.2058 l -44.14963,26.29808 c -7.46326,4.44749 -9.91298,14.10459 -5.4579,21.57194 2.98513,5.00536 8.30853,7.75766 13.74688,7.68296 2.66943,-0.0496 5.36746,-0.75511 7.82448,-2.21747 l 44.14612,-26.30187 c 7.46705,-4.45129 9.9124,-14.10081 5.45761,-21.57165 -3.05924,-5.12733 -8.57608,-7.89188 -14.15128,-7.66779 z M 420.3858,301.38021 c -5.57607,0.26551 -10.83732,3.50361 -13.43643,8.88273 -3.77846,7.82477 -0.49923,17.23007 7.32525,21.00941 2.2732,1.09677 4.68383,1.60037 7.0469,1.56828 5.77214,-0.0759 11.28081,-3.34197 13.96279,-8.89383 v 0 c 3.77817,-7.82505 0.49922,-17.22656 -7.32934,-21.00531 -2.44214,-1.18373 -5.04504,-1.67507 -7.57734,-1.55282 z m 89.68692,15.61452 32.86822,84.77229 c -14.97758,9.39334 -23.89533,26.99746 -21.31168,45.61199 1.0851,7.84461 2.99972,23.49793 4.85598,38.63686 1.8758,15.31516 3.81434,31.14968 4.93884,39.26184 4.87581,35.1922 4.87581,35.19599 -6.3306,57.84924 -2.56031,5.17459 -5.74559,11.6111 -9.39392,19.47555 -0.57801,1.22282 -1.13675,2.46169 -1.67128,3.70406 -0.56254,-1.1951 -1.13237,-2.38291 -1.72584,-3.55467 -3.91296,-7.86036 -7.27448,-14.21051 -9.97571,-19.31478 -11.82002,-22.33435 -11.82002,-22.33785 -7.90822,-57.6485 0.90071,-8.13142 2.40275,-23.98549 3.85753,-39.3167 1.44341,-15.20954 2.93757,-30.94164 3.81056,-38.82155 2.06838,-18.67755 -7.32963,-36.02987 -22.55492,-45.01473 z m -113.8145,42.11655 c -6.13394,-0.0525 -11.99303,3.50798 -14.57989,9.48845 l -41.1893,95.82465 c -42.47834,105.62823 -45.19125,112.38744 -45.2035,260.87127 L 231.244,742.01073 c -8.41065,2.19822 -13.44782,10.78977 -11.25018,19.19691 1.86442,7.15223 8.35608,11.85911 15.42603,11.76487 1.24616,0 2.51246,-0.18382 3.77087,-0.51148 l 75.80699,-19.78629 c 6.92815,-1.80841 11.76458,-8.07277 11.76107,-15.23259 -0.11087,-154.26443 0.69968,-156.27358 42.92243,-261.27653 l 40.87797,-95.06196 c 3.45226,-7.97444 -0.24217,-17.23823 -8.18656,-20.69049 -1.99719,-0.8654 -4.06995,-1.28205 -6.1144,-1.30189 z m -219.43046,87.76063 c -8.69046,0.11671 -15.63786,7.26252 -15.51853,15.94831 0.11963,8.68608 7.25698,15.63407 15.94685,15.51619 l 51.38093,-0.69967 c 8.68958,-0.12255 15.63815,-7.25902 15.51998,-15.94889 -0.12546,-8.68579 -7.25843,-15.63757 -15.94831,-15.5162 z m 618.53382,-8.45033 c -8.69016,0.11671 -15.63757,7.25844 -15.51969,15.9451 0.12254,8.68987 7.26222,15.63786 15.9486,15.51999 l 51.38033,-0.70405 c 8.68988,-0.11671 15.63787,-7.25873 15.51999,-15.94889 -0.12254,-8.68609 -7.25843,-15.63407 -15.94802,-15.51591 z M 623.11255,830.88039 c -6.12985,0.0525 -11.92184,3.71573 -14.40745,9.73938 -3.31454,8.03368 0.51148,17.23445 8.54836,20.54957 2.03307,0.83739 4.14084,1.22282 6.20922,1.1954 6.10243,-0.0875 11.85853,-3.73995 14.33568,-9.73997 3.31104,-8.03338 -0.51848,-17.23036 -8.54428,-20.54548 v 0 0 c -2.00886,-0.8298 -4.0889,-1.21057 -6.13365,-1.19131 z m 58.8792,23.89533 c -6.70845,-0.0496 -12.95239,4.23071 -15.09925,10.95462 -2.64259,8.27672 1.93066,17.12794 10.20767,19.77053 37.32768,11.90259 78.96806,20.00658 120.42082,23.4352 0.51848,0.0496 1.02558,0.0584 1.53327,0.0525 8.00596,-0.10795 14.76867,-6.28741 15.445,-14.4305 0.71572,-8.66245 -5.72079,-16.26343 -14.38324,-16.97915 -39.12033,-3.23576 -78.35154,-10.86037 -113.45299,-22.05511 -1.5531,-0.49514 -3.12605,-0.73527 -4.67128,-0.74694 z"
     fill="#d9d477"
     id="path257"
     style="fill:#ffffff;stroke-width:3.93211" />
</svg>
