<svg width="376" height="376" viewBox="0 0 376 376" fill="none" xmlns="http://www.w3.org/2000/svg">
<path d="M186.781 161.32C184.571 161.35 182.804 163.166 182.835 165.376L183.013 178.444C183.043 180.654 184.859 182.42 187.069 182.39C189.279 182.36 191.045 180.544 191.015 178.335L190.837 165.266C190.806 163.057 188.99 161.29 186.781 161.32ZM144.236 173.317C143.592 173.343 142.944 173.525 142.351 173.879C140.452 175.009 139.83 177.465 140.963 179.364L147.652 190.592C148.411 191.865 149.765 192.565 151.147 192.546C151.826 192.537 152.512 192.354 153.137 191.982C155.036 190.851 155.658 188.395 154.525 186.496L147.837 175.268C147.059 173.963 145.655 173.261 144.236 173.317V173.317ZM229.637 172.15C228.218 172.133 226.834 172.873 226.093 174.199L219.713 185.605C218.634 187.534 219.323 189.972 221.252 191.05C221.887 191.406 222.577 191.569 223.256 191.56C224.639 191.541 225.974 190.805 226.697 189.511L233.077 178.105C234.156 176.176 233.467 173.739 231.538 172.66C230.935 172.323 230.283 172.158 229.637 172.15V172.15ZM178.637 190.972C174.268 191.03 169.79 193.272 167.575 198.389C166.697 200.417 167.636 202.772 169.658 203.651C171.686 204.529 174.041 203.596 174.919 201.568C176.239 198.52 179.238 198.758 180.639 199.312C181.897 199.807 183.825 201.146 182.613 204.543L171.755 234.998C167.202 235.878 163.405 239.596 162.159 244.777C160.374 252.191 158.767 259.33 157.214 266.234C156.428 269.729 155.642 273.223 154.831 276.765C154.338 278.919 155.684 281.064 157.839 281.558C159.993 282.053 162.139 280.705 162.633 278.551C163.446 275 164.234 271.494 165.022 267.99C166.569 261.114 168.168 254.005 169.939 246.65C170.437 244.583 171.925 242.605 174.134 242.814C174.173 242.82 174.212 242.823 174.253 242.828C176.289 243.087 177.752 244.939 177.525 246.986C177.297 249.054 176.914 253.085 176.544 256.985C176.177 260.852 175.798 264.853 175.576 266.858C174.356 277.863 174.781 279.177 178.469 286.144C179.169 287.468 179.963 288.969 180.926 290.904C185.198 299.339 184.658 310.989 179.227 327.568C173.433 345.252 143.256 356.346 117.671 359.168C115.474 359.411 113.89 361.388 114.132 363.584C114.36 365.651 116.122 367.175 118.159 367.147C118.287 367.146 118.418 367.137 118.549 367.123C147.54 363.924 179.898 351.223 186.831 330.06C187.655 327.546 188.372 325.126 188.989 322.793C189.669 325.109 190.451 327.507 191.344 329.998C193.017 334.667 196.023 339.08 200.279 343.115C201.068 343.863 202.08 344.225 203.086 344.212C204.128 344.198 205.163 343.779 205.936 342.964C207.457 341.36 207.389 338.827 205.785 337.307C202.447 334.143 200.123 330.776 198.878 327.299C192.995 310.875 192.137 299.244 196.189 290.67C197.087 288.735 197.84 287.213 198.504 285.871C202 278.805 202.388 277.48 200.868 266.512C200.591 264.511 200.101 260.516 199.628 256.652C199.153 252.771 198.661 248.759 198.376 246.701C198.238 245.711 198.5 244.721 199.113 243.913C199.712 243.121 200.57 242.605 201.535 242.455C201.575 242.45 201.612 242.444 201.652 242.439C203.855 242.167 205.396 244.104 205.95 246.158C207.92 253.453 209.71 260.508 211.442 267.331C212.328 270.821 213.214 274.311 214.127 277.848C214.679 279.988 216.861 281.273 219.001 280.722C221.141 280.17 222.427 277.988 221.875 275.848C220.966 272.321 220.082 268.842 219.199 265.361C217.46 258.51 215.662 251.426 213.678 244.074C212.289 238.927 208.393 235.314 203.818 234.56L192.13 204.414C190.826 201.051 192.717 199.659 193.961 199.129C195.346 198.538 198.337 198.218 199.74 201.23L224.308 254.129C235.772 280.531 235.991 281.036 237.036 320.253C237.083 322.074 238.357 323.632 240.132 324.044L259.54 328.548C261.695 329.045 263.843 327.707 264.343 325.554C264.843 323.401 263.503 321.252 261.35 320.752L244.953 316.947C243.919 279.2 243.181 277.5 231.649 250.943L206.994 197.851C203.719 190.819 196.218 189.469 190.823 191.767C189.527 192.32 188.296 193.115 187.231 194.118C186.138 193.144 184.886 192.383 183.575 191.867C182.04 191.262 180.348 190.95 178.638 190.973L178.637 190.972ZM113.698 204.921C112.279 204.903 110.895 205.643 110.153 206.969C109.074 208.898 109.763 211.335 111.692 212.414L123.098 218.794C123.733 219.149 124.423 219.313 125.102 219.303C126.485 219.285 127.82 218.548 128.544 217.255C129.623 215.326 128.933 212.888 127.004 211.809L115.598 205.43C114.996 205.093 114.344 204.929 113.698 204.921V204.921ZM261.029 202.908C260.384 202.933 259.736 203.115 259.143 203.469L247.915 210.157C246.017 211.288 245.394 213.744 246.527 215.643C247.286 216.916 248.64 217.616 250.023 217.597C250.702 217.588 251.388 217.405 252.013 217.033L263.24 210.344C265.139 209.212 265.761 206.758 264.628 204.858C263.85 203.554 262.447 202.851 261.029 202.908L261.029 202.908ZM164.701 210.669C163.283 210.737 161.945 211.56 161.284 212.928C160.323 214.918 161.157 217.31 163.147 218.271C163.725 218.55 164.338 218.678 164.939 218.67C166.407 218.65 167.808 217.82 168.49 216.408L168.492 216.406C169.453 214.416 168.619 212.025 166.628 211.064C166.007 210.763 165.345 210.638 164.701 210.669V210.669ZM187.51 214.64L195.869 236.199C192.06 238.588 189.792 243.065 190.449 247.799C190.725 249.794 191.212 253.775 191.684 257.625C192.161 261.52 192.654 265.547 192.94 267.61C194.18 276.56 194.18 276.561 191.33 282.322C190.679 283.638 189.869 285.275 188.941 287.275C188.794 287.586 188.652 287.901 188.516 288.217C188.373 287.913 188.228 287.611 188.077 287.313C187.082 285.314 186.227 283.699 185.54 282.401C182.534 276.721 182.534 276.72 183.529 267.74C183.758 265.672 184.14 261.64 184.51 257.741C184.877 253.873 185.257 249.872 185.479 247.868C186.005 243.118 183.615 238.705 179.743 236.42L187.51 214.64ZM158.565 225.351C157.005 225.338 155.515 226.243 154.857 227.764L144.382 252.134C133.579 278.997 132.889 280.716 132.886 318.478L116.599 322.729C114.46 323.288 113.179 325.473 113.738 327.611C114.212 329.43 115.863 330.627 117.661 330.603C117.978 330.599 118.3 330.556 118.62 330.473L137.899 325.441C139.661 324.981 140.891 323.388 140.89 321.567C140.862 282.335 141.068 281.824 151.806 255.12L162.202 230.944C163.08 228.916 162.141 226.56 160.12 225.682C159.612 225.462 159.085 225.356 158.565 225.351V225.351ZM102.76 247.67C100.55 247.7 98.7831 249.517 98.8133 251.726C98.8436 253.935 100.659 255.702 102.869 255.672L115.936 255.494C118.146 255.463 119.913 253.648 119.883 251.438C119.852 249.229 118.037 247.461 115.827 247.492L102.76 247.67ZM260.064 245.521C257.854 245.551 256.087 247.367 256.117 249.576C256.148 251.786 257.964 253.553 260.173 253.523L273.24 253.344C275.45 253.314 277.217 251.498 277.187 249.288C277.157 247.079 275.341 245.312 273.131 245.342L260.064 245.521ZM216.258 345.33C214.699 345.344 213.226 346.275 212.594 347.807C211.751 349.85 212.724 352.19 214.768 353.033C215.285 353.246 215.821 353.344 216.347 353.337C217.899 353.315 219.363 352.386 219.993 350.86C220.835 348.817 219.861 346.478 217.82 345.635L217.82 345.636V345.634C217.309 345.423 216.78 345.326 216.26 345.331L216.258 345.33ZM231.232 351.407C229.526 351.395 227.938 352.483 227.392 354.193C226.72 356.298 227.883 358.549 229.988 359.221C239.481 362.248 250.071 364.309 260.613 365.181C260.745 365.191 260.874 365.196 261.003 365.194C263.039 365.167 264.759 363.595 264.931 361.524C265.113 359.321 263.476 357.388 261.273 357.206C251.324 356.383 241.347 354.444 232.42 351.597C232.025 351.471 231.625 351.41 231.232 351.407V351.407Z" fill="#D9D477"/>
<path d="M95.6575 138.232C96.9364 137.126 97.8264 135.874 98.3271 134.476C98.8313 133.031 99.12 131.642 99.193 130.307C99.2656 128.972 99.2099 127.793 99.0259 126.769C98.8198 125.719 98.6709 125.015 98.5793 124.656C98.5178 124.534 98.5496 124.419 98.6746 124.31C98.7502 124.245 98.8455 124.228 98.9603 124.26C99.079 124.245 99.1457 124.297 99.1607 124.416C99.3423 124.829 99.6241 125.484 100.006 126.381C100.391 127.232 100.775 128.259 101.158 129.462C101.545 130.618 101.863 131.899 102.114 133.304C102.369 134.663 102.434 136.031 102.311 137.409C102.234 138.79 101.913 140.142 101.348 141.465C100.828 142.791 99.9543 143.985 98.7255 145.048C96.9199 146.61 95.0407 147.403 93.0879 147.426C91.135 147.449 89.2228 146.911 87.3511 145.812C85.4795 144.713 83.6866 143.172 81.9729 141.191C80.2374 139.185 78.6952 136.946 77.346 134.474C75.9969 132.002 74.8793 129.417 73.9931 126.72C73.1102 123.977 72.5604 121.339 72.3439 118.808C72.1275 116.277 72.2841 113.949 72.814 111.825C73.3689 109.679 74.4113 107.944 75.9411 106.621C77.0696 105.645 78.1984 105.15 79.3278 105.138C80.4571 105.126 81.5502 105.452 82.607 106.116C83.6638 106.78 84.6769 107.723 85.6464 108.945C86.5941 110.142 87.4382 111.473 88.1785 112.937C88.9189 114.401 89.548 115.939 90.066 117.552C90.5874 119.117 90.9377 120.612 91.1168 122.035C91.321 123.437 91.3481 124.685 91.1984 125.779C91.0487 126.873 90.6729 127.681 90.071 128.201C89.1933 128.96 88.2901 129.26 87.3615 129.098C86.4361 128.89 85.618 128.502 84.9069 127.933C84.1958 127.365 83.6517 126.761 83.2747 126.123C82.8761 125.459 82.7896 125.03 83.0154 124.834C83.1956 124.941 83.3793 125.002 83.5664 125.015C83.7535 125.029 83.9674 124.997 84.2079 124.921C84.4486 124.844 84.7195 124.676 85.0204 124.415C85.5219 123.981 85.7506 123.257 85.7064 122.243C85.6409 121.204 85.4056 120.071 85.0005 118.842C84.5957 117.614 84.0522 116.352 83.3702 115.057C82.6882 113.762 81.9944 112.63 81.2887 111.662C80.5829 110.694 79.8945 109.975 79.2235 109.503C78.5557 108.985 78.0212 108.899 77.6199 109.246C77.018 109.767 76.693 110.683 76.645 111.996C76.5966 113.309 76.7672 114.85 77.1569 116.618C77.5462 118.385 78.114 120.284 78.8605 122.312C79.5853 124.316 80.4413 126.294 81.4284 128.246C82.4407 130.176 83.5333 131.971 84.7062 133.631C85.8824 135.244 87.0915 136.566 88.3334 137.596C89.6005 138.605 90.8493 139.212 92.0803 139.419C93.3363 139.604 94.5287 139.208 95.6573 138.232L95.6575 138.232Z" fill="white"/>
<path d="M116.481 114.834C116.564 114.78 116.661 114.777 116.771 114.826C116.908 114.856 116.976 114.931 116.973 115.05C117.068 115.383 117.192 115.855 117.345 116.465C117.498 117.075 117.632 117.777 117.745 118.57C117.886 119.346 117.965 120.18 117.984 121.072C118.014 121.919 117.974 122.751 117.866 123.568C117.74 124.356 117.505 125.096 117.16 125.789C116.843 126.463 116.363 127.005 115.72 127.416C114.882 127.951 113.913 128.097 112.814 127.854C112.264 129.15 111.458 130.136 110.396 130.814C109.222 131.563 108.102 131.905 107.036 131.837C105.953 131.742 104.944 131.363 104.01 130.701C103.085 129.992 102.244 129.074 101.484 127.946C100.707 126.79 100.038 125.526 99.4763 124.153C98.9429 122.763 98.5112 121.347 98.1811 119.905C97.8613 118.418 97.6776 117.021 97.63 115.714C97.6108 114.389 97.7173 113.199 97.9494 112.146C98.2099 111.075 98.6399 110.27 99.2394 109.73C99.1769 108.275 99.5646 107.28 100.403 106.745C101.409 106.103 102.435 105.861 103.48 106.02C104.508 106.151 105.507 106.575 106.477 107.294C107.446 108.012 108.357 108.946 109.208 110.094C110.059 111.242 110.811 112.513 111.464 113.906C112.117 115.298 112.626 116.744 112.992 118.241C113.385 119.721 113.61 121.151 113.665 122.532C113.653 122.697 113.512 122.846 113.242 122.979C113.001 123.093 112.691 123.193 112.312 123.277C111.961 123.344 111.601 123.397 111.232 123.435C110.892 123.456 110.644 123.437 110.488 123.379C111.237 123.688 111.997 123.832 112.77 123.811C113.526 123.762 114.266 123.505 114.993 123.041C115.468 122.738 115.81 122.225 116.017 121.502C116.235 120.734 116.375 119.937 116.438 119.11C116.482 118.255 116.489 117.464 116.457 116.737C116.408 115.982 116.368 115.457 116.336 115.162C116.321 115.014 116.37 114.905 116.481 114.834L116.481 114.834ZM101.923 108.666C101.531 108.915 101.325 109.362 101.303 110.005C101.281 110.649 101.39 111.405 101.63 112.275C101.87 113.144 102.238 114.09 102.733 115.112C103.237 116.087 103.825 117.07 104.495 118.058C105.148 119.018 105.884 119.925 106.704 120.779C107.506 121.604 108.343 122.269 109.217 122.774C109.18 121.854 109.016 120.857 108.724 119.784C108.443 118.666 108.088 117.555 107.659 116.451C107.213 115.32 106.728 114.253 106.205 113.249C105.665 112.217 105.126 111.342 104.588 110.623C104.061 109.858 103.561 109.292 103.09 108.923C102.619 108.555 102.23 108.469 101.923 108.666ZM100.511 114.405C100.424 115.13 100.476 115.982 100.668 116.961C100.842 117.912 101.108 118.883 101.465 119.874C101.85 120.848 102.305 121.776 102.83 122.661C103.356 123.545 103.911 124.292 104.497 124.902C105.083 125.511 105.686 125.933 106.307 126.166C106.928 126.399 107.517 126.337 108.077 125.98C108.188 125.909 108.286 125.846 108.37 125.793C108.436 125.711 108.516 125.621 108.61 125.522C107.795 124.862 106.992 124.096 106.2 123.225C105.436 122.336 104.69 121.415 103.964 120.462C103.248 119.463 102.606 118.457 102.038 117.443C101.451 116.401 100.943 115.389 100.511 114.405Z" fill="white"/>
<path d="M146.65 101.714C146.773 101.663 146.884 101.671 146.983 101.738C147.082 101.805 147.135 101.89 147.143 101.995C147.177 102.34 147.201 102.832 147.214 103.472C147.257 104.1 147.264 104.814 147.236 105.615C147.208 106.416 147.14 107.251 147.032 108.12C146.911 108.959 146.71 109.777 146.429 110.574C146.166 111.328 145.804 112.016 145.343 112.636C144.912 113.244 144.359 113.687 143.685 113.965C142.643 114.395 141.732 114.448 140.952 114.123C140.204 113.786 139.533 113.202 138.939 112.371C138.376 111.527 137.885 110.51 137.466 109.32C137.078 108.117 136.744 106.874 136.466 105.59C136.206 104.262 135.974 102.959 135.769 101.681C135.596 100.389 135.426 99.2395 135.262 98.2313C135.128 97.2105 134.993 96.4053 134.858 95.8155C134.722 95.2258 134.562 94.9689 134.378 95.0447C134.103 95.1584 133.808 95.8358 133.495 97.0768C133.199 98.2745 133.003 99.8438 132.907 101.784C132.841 103.713 132.95 105.891 133.234 108.321C133.549 110.737 134.203 113.194 135.196 115.689L135.234 115.781L135.405 116.195C135.544 116.532 135.482 116.863 135.221 117.185C134.947 117.478 134.503 117.75 133.89 118.003C132.848 118.433 131.937 118.485 131.158 118.161C130.409 117.824 129.753 117.234 129.19 116.39C128.627 115.546 128.152 114.523 127.763 113.32C127.406 112.104 127.103 110.848 126.855 109.552C126.626 108.212 126.424 106.896 126.25 105.605C126.107 104.301 125.969 103.138 125.835 102.117C125.701 101.097 125.566 100.291 125.431 99.7017C125.295 99.112 125.136 98.855 124.952 98.9309C124.676 99.0446 124.344 99.7193 123.957 100.955C123.557 102.16 123.278 103.745 123.12 105.711C122.993 107.665 123.075 109.908 123.367 112.442C123.658 114.976 124.36 117.592 125.472 120.29C125.561 120.504 125.507 120.724 125.312 120.947C125.148 121.158 124.917 121.38 124.618 121.61C124.336 121.798 124.018 121.983 123.663 122.165C123.308 122.348 122.992 122.496 122.716 122.61C121.766 123.001 120.985 122.803 120.373 122.015C119.731 121.24 119.195 120.116 118.767 118.642C118.296 117.151 117.899 115.449 117.577 113.538C117.256 111.626 116.931 109.751 116.604 107.914C116.264 106.045 115.867 104.344 115.414 102.809C114.961 101.274 114.398 100.126 113.724 99.363C113.585 99.0257 113.712 98.7227 114.103 98.4538C114.512 98.1416 114.855 97.9286 115.131 97.8149C115.542 97.6812 115.978 97.6089 116.44 97.5979C116.92 97.5436 117.363 97.5759 117.771 97.6948C118.197 97.7703 118.565 97.9235 118.875 98.1542C119.203 98.3417 119.431 98.5887 119.557 98.8952C119.646 99.1098 119.737 99.5922 119.831 100.343C119.956 101.08 120.11 102.021 120.295 103.164C120.479 104.307 120.696 105.617 120.946 107.092C121.195 108.567 121.504 110.144 121.873 111.821C121.557 109.835 121.412 107.832 121.44 105.812C121.468 103.792 121.609 101.959 121.863 100.312C122.147 98.6525 122.523 97.2599 122.992 96.1343C123.46 95.0086 124.001 94.3194 124.614 94.0667C124.89 93.9529 125.277 93.8473 125.775 93.7497C126.291 93.6088 126.829 93.5662 127.39 93.6218C127.951 93.6775 128.473 93.8568 128.956 94.1596C129.471 94.4497 129.867 94.932 130.145 95.6065C130.258 98.1423 130.419 100.317 130.629 102.132C130.87 103.933 131.127 105.513 131.399 106.871C131.207 105.014 131.135 103.142 131.183 101.258C131.249 99.3296 131.397 97.6007 131.628 96.0712C131.876 94.4983 132.195 93.1834 132.584 92.1263C133.004 91.0566 133.489 90.408 134.041 90.1805C134.317 90.0668 134.725 89.9701 135.266 89.8905C135.826 89.7676 136.407 89.743 137.011 89.8167C137.616 89.8904 138.197 90.0814 138.754 90.3896C139.311 90.6978 139.729 91.1891 140.007 91.8635C139.945 92.3198 139.932 93.1143 139.968 94.247C140.022 95.3363 140.134 96.5637 140.302 97.9289C140.458 99.2635 140.669 100.647 140.937 102.079C141.204 103.511 141.504 104.804 141.837 105.958C142.156 107.081 142.523 107.971 142.936 108.625C143.35 109.28 143.801 109.506 144.292 109.304C144.69 109.139 145.025 108.732 145.295 108.083C145.583 107.39 145.801 106.655 145.946 105.878C146.11 105.057 146.225 104.292 146.292 103.583C146.376 102.831 146.429 102.307 146.451 102.012C146.523 101.838 146.59 101.739 146.651 101.714H146.65Z" fill="white"/>
<path d="M169.436 97.1841C169.534 97.1637 169.625 97.1954 169.71 97.2791C169.796 97.3629 169.833 97.4568 169.82 97.561C169.779 98.0101 169.698 98.671 169.576 99.5435C169.454 100.416 169.238 101.325 168.928 102.271C168.612 103.185 168.161 104.025 167.576 104.791C167.024 105.55 166.31 106.022 165.434 106.206C165.142 106.267 164.735 106.268 164.214 106.208C163.694 106.147 163.117 106.065 162.485 105.96C161.847 105.823 161.192 105.69 160.521 105.559C159.876 105.39 159.253 105.249 158.654 105.138C158.642 105.242 158.825 105.39 159.204 105.581C159.609 105.734 160.033 105.899 160.477 106.077C160.953 106.248 161.381 106.429 161.76 106.621C162.165 106.773 162.341 106.888 162.29 106.967C161.907 107.725 161.448 108.363 160.913 108.882C160.41 109.394 159.835 109.718 159.186 109.854C158.277 110.045 157.474 110.01 156.775 109.75C156.103 109.451 155.559 109.04 155.144 108.517C154.723 107.961 154.425 107.346 154.249 106.672C154.067 105.965 154.012 105.298 154.084 104.673C154.15 104.016 154.336 103.452 154.644 102.981C154.977 102.47 155.42 102.157 155.972 102.041C156.328 101.967 156.676 101.928 157.014 101.924C157.352 101.921 157.69 101.918 158.028 101.915C158.308 100.501 158.488 98.9385 158.57 97.2274C158.652 95.5163 158.644 93.9425 158.546 92.5062C158.473 91.0307 158.29 89.8325 157.995 88.9118C157.726 87.9519 157.364 87.5195 156.91 87.6148C156.715 87.6557 156.401 88.1789 155.969 89.1844C155.568 90.1832 155.161 91.4714 154.746 93.0491C154.358 94.5875 154.013 96.3369 153.713 98.2972C153.438 100.218 153.336 102.154 153.406 104.104L153.347 104.066C153.399 106.088 153.499 108.1 153.648 110.101C153.829 112.096 154.057 113.912 154.333 115.548C154.615 117.217 154.963 118.634 155.377 119.801C155.791 120.968 156.293 121.743 156.882 122.128C156.929 122.355 156.837 122.561 156.605 122.745C156.405 122.923 156.133 123.081 155.79 123.221C155.486 123.387 155.142 123.526 154.76 123.64C154.377 123.755 154.04 123.842 153.748 123.904C152.547 124.155 151.575 123.885 150.833 123.092C150.091 122.299 149.527 121.147 149.142 119.635C148.732 118.163 148.465 116.406 148.342 114.365C148.226 112.357 148.173 110.25 148.185 108.045C148.195 105.808 148.233 103.564 148.297 101.313C148.367 99.0626 148.402 96.9715 148.404 95.04C148.432 93.0692 148.377 91.3529 148.239 89.8909C148.102 88.4289 147.832 87.3844 147.429 86.7574C147.355 86.4004 147.534 86.1256 147.968 85.9329C148.427 85.701 148.803 85.5544 149.095 85.4932C149.985 85.3743 150.858 85.4962 151.713 85.8588C152.562 86.1891 153.057 86.6949 153.2 87.3764C153.214 87.4413 153.228 87.8282 153.24 88.5369C153.25 89.2132 153.239 90.1302 153.206 91.2881C153.445 90.3234 153.729 89.4167 154.059 88.5682C154.415 87.6804 154.791 86.89 155.188 86.197C155.617 85.4971 156.09 84.9236 156.606 84.4766C157.147 83.9902 157.743 83.679 158.392 83.5429C159.203 83.3727 159.94 83.5739 160.602 84.1465C161.258 84.6866 161.815 85.4846 162.273 86.5403C162.757 87.5568 163.146 88.7628 163.439 90.1582C163.731 91.5537 163.924 93.0379 164.017 94.6108C164.135 96.1445 164.14 97.702 164.032 99.2833C163.949 100.825 163.761 102.271 163.468 103.62C164.088 103.829 164.576 103.896 164.933 103.821C165.614 103.678 166.199 103.318 166.688 102.741C167.177 102.164 167.588 101.536 167.919 100.856C168.277 100.138 168.56 99.4685 168.769 98.8487C168.971 98.1965 169.093 97.7304 169.136 97.4503C169.239 97.2933 169.339 97.2045 169.436 97.1841V97.1841ZM155.74 106.511C156.032 106.45 156.284 106.279 156.496 105.997C156.74 105.709 156.968 105.339 157.178 104.888C156.592 104.842 156.202 104.839 156.007 104.88C155.715 104.941 155.489 105.073 155.328 105.276C155.168 105.48 155.075 105.685 155.051 105.894C155.02 106.069 155.054 106.232 155.154 106.38C155.285 106.522 155.481 106.566 155.74 106.511L155.74 106.511Z" fill="white"/>
<path d="M165.35 103.741C165.945 103.699 166.554 103.373 167.176 102.764C167.795 102.122 168.403 101.315 168.999 100.342C169.563 99.3713 170.087 98.3205 170.572 97.1893C171.088 96.0227 171.54 94.8938 171.929 93.8027C172.35 92.7092 172.679 91.722 172.916 90.841C173.153 89.96 173.29 89.3022 173.326 88.8675C172.796 88.9049 172.368 88.719 172.04 88.31C171.743 87.8656 171.537 87.315 171.425 86.6581C171.312 86.0013 171.312 85.2866 171.425 84.5142C171.536 83.7417 171.751 83.0119 172.068 82.3247C172.418 81.6352 172.859 81.0556 173.391 80.5859C173.954 80.0808 174.632 79.8003 175.426 79.7443C175.889 79.7116 176.262 79.8183 176.546 80.0642C176.829 80.3102 177.018 80.6293 177.112 81.0215C177.237 81.3784 177.281 81.7741 177.245 82.2088C177.207 82.6104 177.099 82.967 176.922 83.2787C176.775 83.555 176.504 83.7237 176.11 83.7847C175.715 83.8458 175.332 83.8396 174.962 83.766C175.627 84.2509 176.267 84.372 176.882 84.1292C177.496 83.8864 178.07 83.5301 178.601 83.0605C179.133 82.5908 179.632 82.1235 180.098 81.6585C180.562 81.1604 180.992 80.8974 181.389 80.8694C181.786 80.8414 182.249 81.0414 182.777 81.4695C183.337 81.8621 183.837 82.3587 184.279 82.9592C184.72 83.5596 185.03 84.1859 185.209 84.8381C185.386 85.4573 185.29 85.9793 184.921 86.4042C184.611 86.7252 184.322 87.344 184.054 88.2604C183.784 89.1437 183.541 90.1747 183.325 91.3534C183.107 92.499 182.943 93.7073 182.833 94.9782C182.721 96.216 182.668 97.35 182.674 98.38C182.713 99.4077 182.84 100.263 183.054 100.946C183.3 101.594 183.654 101.901 184.117 101.868C184.547 101.838 184.977 101.575 185.407 101.079C185.871 100.581 186.297 100.019 186.685 99.3935C187.07 98.7347 187.409 98.1125 187.7 97.5268C187.988 96.9081 188.174 96.4795 188.257 96.241C188.347 96.1017 188.458 96.0273 188.59 96.018C188.855 95.9993 188.965 96.1412 188.92 96.4435C188.844 96.7813 188.711 97.256 188.522 97.8678C188.365 98.4771 188.147 99.1573 187.868 99.9084C187.588 100.659 187.244 101.432 186.835 102.225C186.456 102.983 186.024 103.695 185.539 104.361C185.052 104.993 184.508 105.53 183.908 105.972C183.307 106.413 182.643 106.659 181.915 106.711C180.625 106.802 179.608 106.524 178.865 105.879C178.152 105.198 177.624 104.304 177.28 103.198C176.966 102.057 176.826 100.77 176.858 99.3388C176.89 97.9072 177.021 96.4685 177.251 95.0229C177.513 93.5418 177.861 92.1211 178.297 90.7607C178.733 89.4003 179.184 88.2549 179.65 87.3245C179.272 87.6171 178.89 87.8601 178.505 88.0535C178.153 88.2445 177.75 88.4225 177.296 88.5875C176.875 88.7502 176.434 88.8478 175.97 88.8805C175.079 92.2675 174.063 95.2977 172.922 97.971C172.437 99.1022 171.901 100.22 171.314 101.325C170.727 102.431 170.099 103.422 169.429 104.301C168.727 105.181 167.996 105.898 167.238 106.45C166.479 107.002 165.686 107.307 164.859 107.365C164.429 107.396 164.135 107.234 163.977 106.879C163.819 106.525 163.775 106.129 163.844 105.692C163.877 105.224 164.03 104.798 164.302 104.413C164.572 103.995 164.922 103.771 165.352 103.741L165.35 103.741Z" fill="white"/>
<path d="M209.017 97.1325C209.116 97.1384 209.196 97.1929 209.256 97.296C209.35 97.4012 209.361 97.5014 209.288 97.5969C209.169 97.9221 208.993 98.3768 208.76 98.961C208.526 99.5452 208.223 100.192 207.849 100.901C207.508 101.611 207.084 102.334 206.576 103.068C206.103 103.771 205.583 104.422 205.017 105.02C204.453 105.584 203.828 106.046 203.142 106.405C202.49 106.765 201.783 106.923 201.022 106.878C200.029 106.82 199.158 106.371 198.41 105.53C197.205 106.256 195.974 106.583 194.716 106.509C193.326 106.428 192.219 106.047 191.395 105.368C190.573 104.656 189.978 103.757 189.609 102.673C189.276 101.557 189.133 100.32 189.179 98.9605C189.228 97.5682 189.427 96.1516 189.777 94.7106C190.16 93.2716 190.64 91.8714 191.218 90.5102C191.831 89.1178 192.502 87.8783 193.23 86.7916C193.991 85.7068 194.774 84.806 195.58 84.0892C196.419 83.3744 197.24 82.974 198.042 82.8881C198.844 81.6729 199.742 81.0943 200.735 81.1525C201.926 81.2223 202.899 81.628 203.653 82.3696C204.408 83.0782 204.968 84.0078 205.333 85.1585C205.697 86.3092 205.888 87.5991 205.904 89.0283C205.92 90.4575 205.784 91.9277 205.496 93.4388C205.208 94.9498 204.773 96.4191 204.191 97.8465C203.643 99.2759 202.986 100.566 202.221 101.717C202.114 101.844 201.913 101.882 201.617 101.831C201.354 101.782 201.044 101.681 200.688 101.528C200.364 101.376 200.042 101.207 199.721 101.023C199.433 100.84 199.243 100.679 199.151 100.541C199.576 101.23 200.107 101.793 200.746 102.229C201.387 102.631 202.138 102.858 202.998 102.908C203.561 102.941 204.138 102.726 204.73 102.263C205.357 101.768 205.938 101.204 206.473 100.571C207.011 99.9049 207.48 99.268 207.881 98.6604C208.284 98.0197 208.559 97.5708 208.707 97.3137C208.78 97.1852 208.884 97.1248 209.016 97.1325H209.017ZM200.841 83.6C200.378 83.5729 199.948 83.8135 199.553 84.3218C199.158 84.8301 198.803 85.5069 198.487 86.352C198.172 87.1972 197.916 88.1786 197.717 89.2963C197.554 90.3829 197.454 91.523 197.417 92.7166C197.383 93.8771 197.448 95.0435 197.611 96.2156C197.777 97.3546 198.065 98.3846 198.477 99.3055C198.986 98.5382 199.438 97.6346 199.831 96.5947C200.259 95.5236 200.623 94.4156 200.922 93.2706C201.224 92.0925 201.457 90.9436 201.622 89.8239C201.79 88.6712 201.866 87.646 201.852 86.7483C201.874 85.8195 201.801 85.0679 201.636 84.4936C201.47 83.9192 201.205 83.6214 200.841 83.6ZM196.332 87.4216C195.836 87.9572 195.378 88.6778 194.96 89.5833C194.544 90.4557 194.19 91.3983 193.898 92.4109C193.639 93.4254 193.463 94.4448 193.37 95.469C193.277 96.4933 193.289 97.424 193.406 98.2613C193.523 99.0985 193.765 99.7936 194.131 100.346C194.497 100.899 195.011 101.195 195.673 101.234C195.806 101.242 195.922 101.249 196.021 101.254C196.122 101.227 196.24 101.201 196.374 101.175C196.102 100.163 195.9 99.0716 195.769 97.9014C195.671 96.7331 195.608 95.5502 195.578 94.3527C195.588 93.1241 195.658 91.9324 195.787 90.7777C195.923 89.5899 196.105 88.4712 196.333 87.4216H196.332Z" fill="white"/>
<path d="M241.149 104.195C241.278 104.226 241.363 104.298 241.404 104.41C241.445 104.522 241.438 104.623 241.383 104.712C241.209 105.011 240.939 105.424 240.574 105.95C240.241 106.484 239.829 107.067 239.336 107.699C238.843 108.331 238.298 108.967 237.701 109.608C237.112 110.217 236.469 110.762 235.774 111.243C235.119 111.699 234.423 112.044 233.685 112.276C232.979 112.516 232.272 112.55 231.563 112.38C230.466 112.117 229.698 111.626 229.257 110.906C228.848 110.194 228.647 109.327 228.653 108.306C228.691 107.292 228.89 106.18 229.249 104.971C229.64 103.769 230.099 102.566 230.627 101.363C231.194 100.135 231.77 98.9431 232.354 97.7875C232.971 96.6396 233.508 95.6092 233.966 94.696C234.456 93.7907 234.819 93.0594 235.055 92.5022C235.291 91.9451 235.312 91.6433 235.118 91.5968C234.828 91.5272 234.193 91.9031 233.211 92.7247C232.269 93.5217 231.191 94.6779 229.974 96.1933C228.79 97.7164 227.601 99.5452 226.407 101.68C225.245 103.822 224.334 106.195 223.675 108.799L223.652 108.896L223.548 109.331C223.463 109.686 223.22 109.917 222.818 110.025C222.425 110.102 221.906 110.062 221.261 109.907C220.165 109.644 219.396 109.153 218.955 108.433C218.546 107.721 218.361 106.858 218.4 105.845C218.438 104.831 218.653 103.723 219.044 102.521C219.467 101.327 219.959 100.132 220.519 98.9363C221.118 97.7162 221.727 96.5323 222.343 95.3844C222.992 94.2443 223.561 93.2216 224.051 92.3162C224.541 91.4108 224.905 90.6795 225.141 90.1224C225.377 89.5652 225.398 89.2634 225.204 89.217C224.914 89.1473 224.25 89.4994 223.212 90.2732C222.181 91.0148 221.025 92.1355 219.745 93.6355C218.496 95.1431 217.247 97.0087 215.997 99.2321C214.747 101.456 213.782 103.986 213.101 106.823C213.047 107.049 212.875 107.196 212.586 107.263C212.33 107.337 212.012 107.381 211.634 107.392C211.297 107.379 210.93 107.342 210.536 107.282C210.141 107.221 209.799 107.156 209.508 107.086C208.509 106.847 207.992 106.228 207.959 105.231C207.893 104.226 208.119 103.002 208.636 101.557C209.129 100.073 209.805 98.462 210.665 96.7247C211.526 94.9875 212.362 93.2786 213.175 91.5981C213.995 89.8854 214.672 88.2745 215.204 86.7655C215.737 85.2566 215.954 83.9959 215.856 82.9834C215.941 82.6287 216.221 82.4572 216.696 82.4688C217.211 82.456 217.613 82.4843 217.903 82.554C218.315 82.6868 218.71 82.8842 219.091 83.146C219.511 83.3833 219.852 83.6697 220.112 84.005C220.413 84.3159 220.621 84.6557 220.737 85.0246C220.893 85.3689 220.933 85.7023 220.855 86.0248C220.801 86.2505 220.592 86.6948 220.229 87.3577C219.897 88.0283 219.471 88.8808 218.95 89.9152C218.429 90.9495 217.837 92.1374 217.174 93.4787C216.511 94.82 215.837 96.278 215.152 97.8527C216.06 96.0588 217.117 94.3518 218.325 92.7319C219.532 91.1121 220.721 89.7095 221.892 88.5243C223.096 87.3468 224.217 86.4395 225.257 85.8024C226.296 85.1653 227.138 84.9242 227.783 85.0789C228.073 85.1486 228.449 85.2898 228.909 85.5027C229.41 85.691 229.87 85.9722 230.292 86.3462C230.714 86.7202 231.032 87.1716 231.246 87.7004C231.492 88.237 231.53 88.8599 231.359 89.5693C229.964 91.6895 228.819 93.5461 227.926 95.1389C227.064 96.7394 226.345 98.1697 225.77 99.4298C226.704 97.8125 227.743 96.2545 228.887 94.7559C230.071 93.2327 231.205 91.9192 232.288 90.8152C233.411 89.6867 234.441 88.8084 235.376 88.1803C236.343 87.56 237.117 87.3195 237.697 87.4588C237.987 87.5285 238.375 87.6897 238.86 87.9425C239.385 88.1708 239.871 88.4919 240.317 88.906C240.763 89.32 241.121 89.8152 241.392 90.3918C241.663 90.9683 241.713 91.6112 241.543 92.3206C241.225 92.6533 240.748 93.2891 240.114 94.228C239.519 95.1424 238.89 96.202 238.225 97.4065C237.569 98.5789 236.929 99.8235 236.306 101.14C235.683 102.457 235.168 103.68 234.761 104.81C234.361 105.908 234.136 106.843 234.087 107.615C234.038 108.388 234.271 108.836 234.787 108.96C235.206 109.06 235.716 108.927 236.316 108.559C236.955 108.167 237.562 107.699 238.136 107.155C238.75 106.586 239.292 106.034 239.761 105.499C240.271 104.939 240.621 104.546 240.812 104.319C240.972 104.221 241.084 104.18 241.149 104.195V104.195Z" fill="white"/>
<path d="M245.645 113.293C246.045 113.455 246.568 113.398 247.216 113.123C247.906 112.83 248.576 112.457 249.224 112.004C249.915 111.532 250.533 111.067 251.077 110.607C251.651 110.159 252.049 109.838 252.272 109.641C252.352 109.531 252.469 109.507 252.623 109.569C252.715 109.606 252.773 109.683 252.797 109.8C252.865 109.899 252.843 109.997 252.732 110.096C252.516 110.366 252.188 110.734 251.749 111.2C251.341 111.679 250.847 112.195 250.266 112.747C249.685 113.299 249.052 113.847 248.366 114.393C247.693 114.908 246.977 115.351 246.219 115.724C245.503 116.079 244.779 116.322 244.045 116.455C243.312 116.588 242.608 116.518 241.931 116.244C241.07 115.896 240.5 115.272 240.22 114.372C239.971 113.485 239.932 112.432 240.102 111.213C240.285 109.964 240.647 108.626 241.188 107.199C241.742 105.742 242.409 104.313 243.19 102.912C243.983 101.48 244.85 100.131 245.791 98.8665C246.775 97.5832 247.751 96.4938 248.721 95.5984C249.735 94.6846 250.716 94.0263 251.666 93.6234C252.646 93.2329 253.536 93.1992 254.336 93.5224C255.565 94.0195 256.321 94.5395 256.602 95.0824C256.926 95.6069 256.894 95.9516 256.505 96.1165C255.858 96.3912 255.064 96.9825 254.125 97.8903C253.229 98.7799 252.301 99.8356 251.342 101.057C250.414 102.292 249.498 103.584 248.594 104.936C247.733 106.269 247.008 107.531 246.419 108.724C245.83 109.916 245.435 110.937 245.235 111.786C245.047 112.604 245.184 113.107 245.645 113.293L245.645 113.293ZM258.677 93.1319C258.566 93.4086 258.298 93.4969 257.873 93.3968C257.479 93.3091 257.07 93.126 256.647 92.8474C256.235 92.538 255.886 92.1642 255.598 91.7259C255.353 91.2694 255.312 90.8413 255.474 90.4416C255.635 90.042 255.921 89.5135 256.329 88.8561C256.738 88.1988 257.187 87.5754 257.676 86.9861C258.177 86.366 258.665 85.866 259.14 85.486C259.647 85.1184 260.084 85.0091 260.453 85.1583C260.883 85.3323 261.295 85.5524 261.688 85.8186C262.112 86.0972 262.456 86.3971 262.72 86.7183C263.026 87.0211 263.244 87.3237 263.372 87.6258C263.5 87.928 263.521 88.1867 263.434 88.4019C263.26 88.8323 262.948 89.2068 262.497 89.5253C262.089 89.8255 261.639 90.1441 261.145 90.4809C260.682 90.8302 260.206 91.2102 259.718 91.621C259.274 92.0134 258.927 92.5171 258.678 93.1319H258.677Z" fill="white"/>
<path d="M273.936 101.016C274.347 101.231 274.757 101.52 275.165 101.884C275.603 102.263 275.952 102.633 276.212 102.994C276.502 103.37 276.681 103.707 276.75 104.005C276.863 104.289 276.808 104.466 276.584 104.536C276.002 104.718 275.306 105.046 274.497 105.52C273.702 105.965 272.891 106.513 272.063 107.165C271.235 107.817 270.428 108.574 269.641 109.434C268.869 110.265 268.221 111.18 267.698 112.179C267.56 112.443 267.284 112.505 266.872 112.364C266.489 112.238 266.107 112.001 265.728 111.653C265.349 111.304 265.038 110.898 264.794 110.434C264.595 109.955 264.595 109.525 264.794 109.143C264.963 108.82 265.344 108.308 265.935 107.607C266.542 106.877 267.239 106.119 268.024 105.333C267.231 104.917 266.411 104.732 265.565 104.775C264.734 104.789 263.938 104.952 263.176 105.264C262.458 105.563 261.798 105.966 261.195 106.473C260.593 106.981 260.153 107.5 259.876 108.028C259.645 108.469 259.637 108.914 259.852 109.363C260.095 109.827 260.434 110.323 260.869 110.85C261.32 111.348 261.799 111.898 262.307 112.501C262.86 113.09 263.308 113.736 263.65 114.439C263.993 115.143 264.179 115.895 264.209 116.697C264.284 117.484 264.075 118.348 263.582 119.288C263.136 120.14 262.398 120.764 261.367 121.16C260.352 121.527 259.243 121.714 258.042 121.721C256.87 121.744 255.693 121.633 254.511 121.388C253.344 121.114 252.393 120.785 251.659 120.401C250.455 119.77 249.772 119.001 249.611 118.093C249.479 117.201 249.598 116.365 249.969 115.586C250.355 114.777 250.864 114.127 251.496 113.634C252.128 113.142 252.62 112.988 252.973 113.172C252.696 113.701 252.886 114.231 253.544 114.763C254.246 115.28 255.061 115.725 255.989 116.098C256.961 116.458 257.883 116.697 258.756 116.818C259.658 116.953 260.179 116.889 260.317 116.624C260.517 116.242 260.435 115.863 260.071 115.485C259.708 115.107 259.218 114.72 258.602 114.323C257.987 113.926 257.29 113.505 256.512 113.06C255.779 112.602 255.128 112.13 254.559 111.645C253.989 111.159 253.569 110.64 253.298 110.086C253.041 109.503 253.083 108.888 253.422 108.242C254.221 106.714 255.241 105.339 256.48 104.116C257.763 102.879 259.109 101.881 260.518 101.121C261.941 100.332 263.345 99.8318 264.728 99.6203C266.141 99.4241 267.391 99.6106 268.478 100.18C268.771 100.333 268.99 100.56 269.132 100.859C269.304 101.174 269.402 101.524 269.424 101.91C269.492 102.282 269.492 102.675 269.425 103.089C269.373 103.474 269.3 103.829 269.204 104.153C269.702 103.703 270.192 103.267 270.675 102.846C271.173 102.395 271.625 102.033 272.03 101.759C272.48 101.47 272.855 101.255 273.155 101.112C273.499 100.956 273.759 100.923 273.935 101.016H273.936Z" fill="white"/>
<path d="M290.751 111.932C291.135 112.194 291.508 112.529 291.871 112.938C292.261 113.366 292.564 113.775 292.78 114.164C293.023 114.571 293.162 114.927 293.195 115.231C293.274 115.526 293.199 115.695 292.968 115.739C292.369 115.851 291.639 116.095 290.779 116.471C289.938 116.819 289.068 117.269 288.169 117.819C287.27 118.369 286.379 119.025 285.496 119.787C284.632 120.521 283.882 121.353 283.245 122.284C283.076 122.53 282.796 122.559 282.402 122.37C282.037 122.2 281.686 121.92 281.35 121.53C281.015 121.139 280.753 120.699 280.566 120.21C280.425 119.711 280.476 119.284 280.72 118.928C280.925 118.627 281.364 118.164 282.033 117.537C282.722 116.883 283.503 116.212 284.376 115.524C283.637 115.018 282.845 114.737 281.999 114.681C281.172 114.597 280.362 114.666 279.568 114.886C278.821 115.098 278.118 115.42 277.46 115.854C276.802 116.287 276.304 116.75 275.967 117.243C275.686 117.653 275.625 118.094 275.785 118.565C275.972 119.055 276.251 119.587 276.621 120.162C277.01 120.709 277.421 121.312 277.855 121.97C278.334 122.62 278.703 123.314 278.96 124.053C279.218 124.792 279.315 125.561 279.25 126.36C279.231 127.151 278.922 127.984 278.323 128.86C277.78 129.654 276.973 130.186 275.903 130.458C274.851 130.703 273.728 130.759 272.534 130.625C271.368 130.509 270.212 130.261 269.067 129.879C267.941 129.47 267.036 129.031 266.351 128.563C265.23 127.795 264.642 126.951 264.589 126.03C264.562 125.129 264.779 124.313 265.239 123.583C265.717 122.825 266.299 122.239 266.985 121.824C267.671 121.409 268.178 121.314 268.506 121.539C268.169 122.032 268.296 122.581 268.886 123.186C269.523 123.782 270.28 124.32 271.157 124.8C272.08 125.271 272.968 125.617 273.82 125.839C274.7 126.08 275.225 126.077 275.393 125.831C275.637 125.475 275.6 125.088 275.283 124.67C274.966 124.253 274.526 123.811 273.961 123.344C273.396 122.877 272.754 122.377 272.034 121.844C271.36 121.303 270.769 120.757 270.26 120.209C269.752 119.66 269.395 119.094 269.191 118.512C269.005 117.903 269.118 117.297 269.53 116.695C270.504 115.273 271.678 114.027 273.052 112.958C274.473 111.881 275.927 111.048 277.415 110.459C278.921 109.843 280.374 109.511 281.773 109.463C283.198 109.435 284.418 109.767 285.43 110.46C285.704 110.647 285.894 110.898 286 111.212C286.134 111.544 286.19 111.904 286.167 112.29C286.19 112.667 286.143 113.057 286.027 113.461C285.931 113.837 285.816 114.18 285.684 114.491C286.231 114.102 286.769 113.727 287.298 113.366C287.845 112.977 288.336 112.67 288.771 112.446C289.252 112.212 289.65 112.042 289.964 111.936C290.324 111.821 290.586 111.819 290.75 111.932L290.751 111.932Z" fill="white"/>
<path d="M298.758 141.371C298.833 141.437 298.862 141.529 298.846 141.648C298.856 141.788 298.802 141.874 298.685 141.904C298.39 142.086 297.971 142.334 297.425 142.648C296.88 142.962 296.241 143.282 295.509 143.607C294.802 143.954 294.021 144.259 293.168 144.521C292.361 144.78 291.55 144.969 290.735 145.088C289.942 145.182 289.165 145.157 288.405 145.015C287.67 144.894 287.017 144.58 286.447 144.074C285.703 143.413 285.298 142.521 285.231 141.397C283.835 141.222 282.666 140.716 281.724 139.879C280.683 138.954 280.049 137.97 279.823 136.926C279.619 135.858 279.707 134.784 280.09 133.704C280.519 132.622 281.172 131.562 282.051 130.523C282.95 129.46 283.984 128.471 285.151 127.556C286.343 126.663 287.588 125.861 288.884 125.15C290.228 124.437 291.522 123.879 292.766 123.476C294.036 123.095 295.209 122.873 296.285 122.81C297.387 122.768 298.279 122.962 298.962 123.391C300.344 122.933 301.407 123.035 302.151 123.695C303.044 124.488 303.556 125.409 303.689 126.458C303.844 127.482 303.708 128.559 303.281 129.688C302.855 130.817 302.206 131.948 301.333 133.08C300.461 134.212 299.443 135.282 298.282 136.291C297.12 137.299 295.869 138.184 294.528 138.944C293.212 139.727 291.898 140.333 290.584 140.763C290.422 140.796 290.24 140.701 290.039 140.478C289.863 140.278 289.682 140.006 289.498 139.665C289.338 139.346 289.189 139.014 289.051 138.67C288.938 138.348 288.888 138.104 288.901 137.939C288.809 138.743 288.878 139.514 289.109 140.252C289.363 140.965 289.812 141.608 290.456 142.18C290.878 142.554 291.464 142.743 292.216 142.745C293.015 142.745 293.82 142.662 294.632 142.496C295.467 142.306 296.229 142.096 296.921 141.868C297.634 141.614 298.128 141.432 298.403 141.322C298.541 141.267 298.659 141.283 298.758 141.371L298.758 141.371ZM300.718 125.683C300.371 125.374 299.885 125.297 299.26 125.452C298.635 125.606 297.937 125.918 297.166 126.386C296.395 126.855 295.586 127.466 294.738 128.221C293.937 128.973 293.152 129.807 292.384 130.721C291.639 131.611 290.967 132.567 290.37 133.589C289.795 134.586 289.384 135.573 289.136 136.551C290.012 136.264 290.926 135.834 291.878 135.261C292.878 134.685 293.85 134.04 294.794 133.327C295.76 132.588 296.655 131.83 297.478 131.054C298.323 130.252 299.018 129.494 299.563 128.781C300.154 128.065 300.563 127.43 300.789 126.876C301.014 126.323 300.991 125.925 300.718 125.683H300.718ZM294.811 125.892C294.09 126.005 293.284 126.287 292.395 126.739C291.528 127.166 290.666 127.687 289.81 128.302C288.979 128.938 288.209 129.63 287.502 130.376C286.795 131.123 286.228 131.861 285.801 132.591C285.375 133.321 285.134 134.016 285.079 134.677C285.025 135.338 285.245 135.889 285.741 136.329C285.84 136.417 285.926 136.494 286.001 136.56C286.098 136.602 286.207 136.654 286.327 136.717C286.74 135.753 287.257 134.771 287.879 133.771C288.526 132.794 289.209 131.825 289.927 130.867C290.692 129.905 291.485 129.013 292.305 128.189C293.147 127.341 293.983 126.575 294.811 125.892Z" fill="white"/>
<path d="M173.72 32.8525L178.411 13.6894H182.446V41.6641H178.582V25.9657L175.132 41.6641H172.394L168.844 25.9657V41.6641H164.937V13.6894H168.972L173.72 32.8525Z" fill="#D9D477"/>
<path d="M186.153 13.6894H196.619V17.6674H190.188V29.402H195.721V33.3943H190.188V37.686H196.619V41.6641H186.153V13.6894Z" fill="#D9D477"/>
<path d="M211.063 36.2317C211.063 40.148 209.128 42.1108 205.26 42.1203C201.4 42.1203 199.471 40.1575 199.471 36.2317V13.6894H203.506V36.2317C203.506 37.4959 204.09 38.128 205.26 38.128C206.438 38.128 207.028 37.4959 207.028 36.2317V13.6894H211.063V36.2317Z" fill="#D9D477"/>
</svg>
