<?xml version="1.0" encoding="UTF-8" standalone="no"?>
<svg
   xmlns:dc="http://purl.org/dc/elements/1.1/"
   xmlns:cc="http://creativecommons.org/ns#"
   xmlns:rdf="http://www.w3.org/1999/02/22-rdf-syntax-ns#"
   xmlns:svg="http://www.w3.org/2000/svg"
   xmlns="http://www.w3.org/2000/svg"
   xmlns:sodipodi="http://sodipodi.sourceforge.net/DTD/sodipodi-0.dtd"
   xmlns:inkscape="http://www.inkscape.org/namespaces/inkscape"
   inkscape:export-ydpi="96"
   inkscape:export-xdpi="96"
   inkscape:export-filename="/home/solucaocriativa/Development/MEU-COMPROMISSO/mobile/src/assets/splash.png"
   inkscape:version="1.0 (6e3e5246a0, 2020-05-07)"
   sodipodi:docname="splash-icon.svg"
   id="svg32"
   version="1.1"
   fill="none"
   viewBox="0 0 1242 2436"
   height="2436"
   width="1242">
  <metadata
     id="metadata38">
    <rdf:RDF>
      <cc:Work
         rdf:about="">
        <dc:format>image/svg+xml</dc:format>
        <dc:type
           rdf:resource="http://purl.org/dc/dcmitype/StillImage" />
        <dc:title></dc:title>
      </cc:Work>
    </rdf:RDF>
  </metadata>
  <defs
     id="defs36" />
  <sodipodi:namedview
     fit-margin-bottom="0"
     fit-margin-right="0"
     fit-margin-left="0"
     fit-margin-top="0"
     inkscape:current-layer="svg32"
     inkscape:window-maximized="1"
     inkscape:window-y="25"
     inkscape:window-x="0"
     inkscape:cy="1461.8619"
     inkscape:cx="-740.05733"
     inkscape:zoom="0.1512633"
     inkscape:snap-global="true"
     showgrid="false"
     id="namedview34"
     inkscape:window-height="689"
     inkscape:window-width="1366"
     inkscape:pageshadow="2"
     inkscape:pageopacity="0"
     guidetolerance="10"
     gridtolerance="10"
     objecttolerance="10"
     borderopacity="1"
     bordercolor="#666666"
     pagecolor="#353535" />
  <rect
     style="fill:#ffffff;stroke-width:154.01;stroke-linecap:round"
     id="rect70"
     width="1242"
     height="2436"
     x="0"
     y="0" />
  <circle
     r="228.37404"
     cy="1183.0967"
     cx="631.90826"
     id="path268"
     style="fill:#1f8163;fill-opacity:1;stroke-width:32.4201;stroke-linecap:round" />
  <path
     style="fill:#ffffff;stroke-width:1.34766"
     id="path257"
     fill="#d9d477"
     d="m 631.71467,1031.0754 c -2.9785,0.04 -5.3597,2.4877 -5.3179,5.466 l 0.2398,17.6111 c 0.042,2.9783 2.4879,5.3583 5.4662,5.3179 2.9783,-0.04 5.3583,-2.4877 5.3177,-5.4646 l -0.2398,-17.6126 c -0.041,-2.9769 -2.4892,-5.3582 -5.466,-5.3178 z m -57.336,16.1678 c -0.868,0.034 -1.7413,0.2804 -2.5405,0.7573 -2.5591,1.5228 -3.3975,4.8328 -1.8704,7.3919 l 9.0145,15.1315 c 1.0228,1.7155 2.8475,2.6589 4.71,2.6333 0.915,-0.017 1.8396,-0.2588 2.6816,-0.7601 2.5594,-1.5242 3.3977,-4.8339 1.8707,-7.3931 l -9.0131,-15.1316 c -1.0484,-1.7587 -2.9405,-2.7047 -4.8528,-2.6292 z m 115.0911,-1.5727 c -1.9123,-0.023 -3.7775,0.9744 -4.7761,2.7614 l -8.5982,15.3714 c -1.454,2.5996 -0.5255,5.885 2.0741,7.3378 0.8557,0.4798 1.7857,0.6994 2.7008,0.6873 1.8637,-0.025 3.6629,-1.0175 4.6373,-2.7613 l 8.5978,-15.3714 c 1.4544,-2.5995 0.5257,-5.8839 -2.0737,-7.338 -0.8128,-0.4541 -1.6915,-0.6764 -2.562,-0.6872 z m -68.7305,25.3655 c -5.8879,0.077 -11.9227,3.0996 -14.9078,9.9956 -1.1832,2.733 0.081,5.9068 2.8073,7.0913 2.733,1.1833 5.9068,-0.074 7.09,-2.8072 1.7788,-4.1077 5.8205,-3.7869 7.7086,-3.0403 1.6953,0.6671 4.2937,2.4717 2.6602,7.0496 l -14.6329,41.0429 c -6.1358,1.1859 -11.2529,6.1965 -12.9322,13.1787 -2.4052,9.9916 -4.5711,19.6125 -6.6641,28.9166 -1.0592,4.7102 -2.1185,9.4188 -3.2115,14.1923 -0.6643,2.9028 1.1497,5.7936 4.0537,6.4592 2.9031,0.6672 5.7951,-1.1496 6.4608,-4.0524 1.0956,-4.7855 2.1577,-9.5103 3.2196,-14.2325 2.0849,-9.2665 4.2397,-18.8471 6.6263,-28.7591 0.6714,-2.7856 2.6764,-5.4512 5.6536,-5.1695 0.053,0.017 0.1042,0.017 0.1605,0.018 2.7438,0.349 4.7155,2.8449 4.4094,5.6036 -0.3072,2.7869 -0.8234,8.2193 -1.3219,13.4751 -0.4947,5.2115 -1.0054,10.6035 -1.3047,13.3054 -1.644,14.831 -1.0713,16.602 3.8988,25.991 0.9435,1.7843 2.0135,3.8071 3.3114,6.4148 5.7571,11.3674 5.0294,27.0677 -2.2898,49.4106 -7.8082,23.8319 -48.4766,38.7827 -82.9562,42.5859 -2.9609,0.3274 -5.0956,2.9916 -4.7694,5.9512 0.3072,2.7855 2.6819,4.8394 5.4271,4.8016 0.1725,0 0.3489,-0.017 0.5255,-0.031 39.0699,-4.3111 82.6771,-21.4277 92.0206,-49.9481 1.1104,-3.388 2.0766,-6.6493 2.9081,-9.7935 0.9164,3.1212 1.9704,6.3529 3.1738,9.7099 2.2547,6.2922 6.3058,12.2394 12.0414,17.6773 1.0632,1.0079 2.4271,1.4958 3.7828,1.4783 1.4042,-0.018 2.799,-0.5836 3.8407,-1.6819 2.0498,-2.1616 1.9583,-5.5752 -0.2034,-7.6237 -4.4984,-4.2639 -7.6303,-8.8014 -9.3082,-13.4872 -7.9282,-22.134 -9.0847,-37.8086 -3.6239,-49.3635 1.2101,-2.6076 2.225,-4.6588 3.1198,-6.4673 4.7116,-9.5225 5.2342,-11.3081 3.1859,-26.0892 -0.3731,-2.6967 -1.0337,-8.0805 -1.6711,-13.288 -0.6401,-5.2302 -1.303,-10.6369 -1.6871,-13.4105 -0.1861,-1.3341 0.1669,-2.6683 0.9932,-3.7573 0.8071,-1.0674 1.9634,-1.7627 3.2639,-1.9649 0.053,0 0.1026,-0.017 0.1573,-0.022 2.9688,-0.3664 5.0455,2.2439 5.7922,5.012 2.6547,9.8311 5.0671,19.339 7.4013,28.534 1.1941,4.7033 2.388,9.4065 3.6184,14.1733 0.744,2.8839 3.6844,4.6155 6.5684,3.8731 2.8841,-0.7439 4.6172,-3.6845 3.8732,-6.5684 -1.2249,-4.7534 -2.4164,-9.4418 -3.6062,-14.133 -2.3438,-9.2327 -4.7668,-18.7796 -7.4405,-28.6874 -1.8718,-6.9365 -7.1224,-11.8056 -13.2878,-12.8216 l -15.7516,-40.6266 c -1.7574,-4.5321 0.7911,-6.408 2.4677,-7.1223 1.8664,-0.7964 5.8973,-1.2277 7.7881,2.8314 l 33.1092,71.2897 c 15.4495,35.5809 15.7446,36.2614 17.1529,89.1123 0.063,2.4541 1.7803,4.5537 4.1724,5.1091 l 26.1553,6.0697 c 2.9043,0.6699 5.7989,-1.1333 6.4727,-4.0349 0.674,-2.9014 -1.1319,-5.7974 -4.0334,-6.4714 l -22.0975,-5.1277 c -1.3936,-50.87 -2.3881,-53.1611 -17.9293,-88.9508 l -33.2264,-71.5497 c -4.4137,-9.4767 -14.5223,-11.296 -21.793,-8.1992 -1.7466,0.7453 -3.4055,1.8167 -4.8409,3.1683 -1.4728,-1.3125 -3.16,-2.3381 -4.9269,-3.0335 -2.0687,-0.8153 -4.3489,-1.2357 -6.6534,-1.2047 z m -87.5154,18.7984 c -1.9122,-0.025 -3.7775,0.973 -4.7775,2.7601 -1.4539,2.5996 -0.5254,5.8838 2.0742,7.3379 l 15.3714,8.598 c 0.8556,0.4785 1.7856,0.6995 2.7007,0.6861 1.8637,-0.025 3.6628,-1.0176 4.6387,-2.76 1.4539,-2.5998 0.5241,-5.8852 -2.0757,-7.3394 l -15.3712,-8.5967 c -0.8113,-0.4542 -1.69,-0.6751 -2.5606,-0.686 z m 198.5516,-2.7129 c -0.8693,0.034 -1.7427,0.2791 -2.5418,0.756 l -15.1315,9.0132 c -2.5579,1.5243 -3.3975,4.8341 -1.8706,7.3934 1.0231,1.7155 2.8476,2.6588 4.7115,2.6332 0.9149,-0.017 1.8396,-0.2588 2.6817,-0.76 l 15.1303,-9.0145 c 2.5592,-1.5256 3.3973,-4.8328 1.8705,-7.3933 -1.0485,-1.7573 -2.9393,-2.7048 -4.8501,-2.628 z m -129.817,10.4592 c -1.9111,0.091 -3.7143,1.2008 -4.6051,3.0444 -1.295,2.6818 -0.1711,5.9053 2.5106,7.2006 0.7791,0.3759 1.6053,0.5485 2.4152,0.5375 1.9783,-0.026 3.8663,-1.1454 4.7855,-3.0482 v 0 c 1.2949,-2.6819 0.1711,-5.9041 -2.512,-7.1992 -0.837,-0.4057 -1.7291,-0.5741 -2.597,-0.5322 z m 30.7386,5.3516 11.265,29.0542 c -5.1333,3.2194 -8.1897,9.2529 -7.3042,15.6327 0.3719,2.6886 1.0281,8.0535 1.6643,13.2421 0.6429,5.249 1.3073,10.676 1.6927,13.4563 1.6711,12.0615 1.6711,12.0628 -2.1697,19.8268 -0.8775,1.7735 -1.9692,3.9795 -3.2196,6.6749 -0.1981,0.4191 -0.3896,0.8437 -0.5728,1.2695 -0.1928,-0.4096 -0.3881,-0.8167 -0.5915,-1.2183 -1.3411,-2.694 -2.4932,-4.8704 -3.419,-6.6198 -4.0511,-7.6547 -4.0511,-7.6559 -2.7104,-19.758 0.3087,-2.7869 0.8235,-8.2206 1.3221,-13.4751 0.4947,-5.2128 1.0068,-10.6047 1.306,-13.3054 0.7089,-6.4014 -2.5121,-12.3486 -7.7303,-15.428 z m -39.0079,14.4347 c -2.1023,-0.018 -4.1104,1.2023 -4.997,3.252 l -14.1169,32.8422 c -14.5587,36.2022 -15.4885,38.5188 -15.4927,89.409 l -21.9491,5.7288 c -2.8826,0.7534 -4.609,3.698 -3.8558,6.5794 0.639,2.4513 2.8639,4.0645 5.287,4.0322 0.4271,0 0.8611,-0.063 1.2924,-0.1753 l 25.9815,-6.7814 c 2.3745,-0.6198 4.0321,-2.7668 4.0309,-5.2207 -0.038,-52.8714 0.2398,-53.56 14.7109,-89.5479 l 14.0102,-32.5808 c 1.1832,-2.7331 -0.083,-5.9081 -2.8058,-7.0913 -0.6845,-0.2966 -1.3949,-0.4394 -2.0956,-0.4462 z m -75.2059,30.0784 c -2.9785,0.04 -5.3596,2.4891 -5.3187,5.466 0.041,2.977 2.4872,5.3583 5.4655,5.3179 l 17.6099,-0.2398 c 2.9782,-0.042 5.3597,-2.4879 5.3192,-5.4662 -0.043,-2.9769 -2.4877,-5.3595 -5.466,-5.3179 z m 211.9915,-2.8962 c -2.9784,0.04 -5.3595,2.4877 -5.3191,5.4649 0.042,2.9783 2.489,5.3596 5.4661,5.3192 l 17.6097,-0.2413 c 2.9783,-0.04 5.3596,-2.4878 5.3192,-5.4662 -0.042,-2.977 -2.4877,-5.3583 -5.4659,-5.3178 z m -59.0353,134.5083 c -2.1009,0.018 -4.086,1.2735 -4.9379,3.338 -1.136,2.7534 0.1753,5.9068 2.9298,7.043 0.6968,0.287 1.4192,0.4191 2.1281,0.4097 2.0915,-0.03 4.0643,-1.2818 4.9133,-3.3382 1.1348,-2.7533 -0.1777,-5.9054 -2.9284,-7.0416 v 0 0 c -0.6885,-0.2844 -1.4014,-0.4149 -2.1022,-0.4083 z m 20.1798,8.1897 c -2.2992,-0.017 -4.4392,1.45 -5.175,3.7545 -0.9057,2.8367 0.6617,5.8703 3.4985,6.776 12.7934,4.0794 27.0649,6.8569 41.2721,8.032 0.1777,0.017 0.3515,0.02 0.5255,0.018 2.7439,-0.037 5.0617,-2.1549 5.2935,-4.9458 0.2453,-2.9689 -1.9607,-5.574 -4.9296,-5.8193 -13.4078,-1.109 -26.8536,-3.7222 -38.884,-7.559 -0.5323,-0.1697 -1.0714,-0.252 -1.601,-0.256 z" />
</svg>
